#!OML:ASF X:\für Bonn\!DataBase\2005_08_11_Bastian_Final\c3d\Bastian.ASF
:FULLY-SPECIFIED
:DEGREES
2547
root 1.82801 18.0159 -34.5498 171.788 15.5916 -173.723
lowerback 3.62449 0.161748 0.0870896
upperback 5.13156 0.498399 0.450532
thorax 3.24358 0.36821 0.418182
lowerneck -10.1842 -1.22761 0.635554
upperneck -7.72263 0.111757 13.0389
head -0.720696 0.616226 4.19165
rclavicle -4.91992e-015 1.27222e-014
rhumerus -389.809 44.4614 262.86
rradius 68.0971
rwrist -131.077
rhand -11.4698 9.06994
rfingers 7.12502
rthumb 14.5679 -380.398
lclavicle -4.91992e-015 1.27222e-014
lhumerus -5.57201 5.90915 56.7224
lradius 87.828
lwrist 231.486
lhand -22.0986 21.1974
lfingers 7.12502
lthumb 4.31351 51.1334
rfemur 2.31614 -3.79102 15.1606
rtibia 51.8408
rfoot -2.68045 -3.33169
rtoes -12.26
lfemur 7.36871 -3.81285 -8.59411
ltibia 26.7477
lfoot -4.00787 -10.5592
ltoes -20.5525
2548
root 1.84471 18.021 -34.5267 171.837 16.2073 -173.75
lowerback 3.81899 -0.0707898 0.236328
upperback 5.16384 0.192466 0.598628
thorax 3.16979 0.219858 0.488635
lowerneck -10.0109 -0.909662 0.600583
upperneck -7.86605 0.541433 12.8526
head -0.828233 0.806774 4.14248
rclavicle -1.51573e-015 -2.38542e-014
rhumerus -390.05 43.8397 263.411
rradius 68.0596
rwrist -130.908
rhand -11.1243 9.38628
rfingers 7.12502
rthumb 14.9007 -380.058
lclavicle -1.51573e-015 -2.38542e-014
lhumerus -5.21292 5.6634 57.8827
lradius 87.5982
lwrist 231.089
lhand -22.5039 21.3375
lfingers 7.12502
lthumb 3.92214 51.2811
rfemur 1.78372 -3.21176 15.1549
rtibia 51.5092
rfoot -3.13359 -3.41107
rtoes -12.8646
lfemur 7.58688 -3.65791 -8.55367
ltibia 26.4127
lfoot -3.96278 -10.1836
ltoes -20.6018
2549
root 1.86276 18.0283 -34.5023 171.918 16.8103 -173.786
lowerback 4.01335 -0.274662 0.393845
upperback 5.18445 -0.0739968 0.733423
thorax 3.08388 0.0915631 0.541777
lowerneck -9.83873 -0.623015 0.590443
upperneck -8.03735 0.930629 12.643
head -0.941036 0.977253 4.07803
rclavicle 9.86469e-015 -4.77083e-015
rhumerus -390.3 43.1192 263.971
rradius 68.0651
rwrist -130.68
rhand -10.8683 9.66142
rfingers 7.12502
rthumb 15.1474 -379.764
lclavicle 9.86469e-015 -4.77083e-015
lhumerus -4.89193 5.24919 59.0338
lradius 87.4257
lwrist 230.669
lhand -22.7315 21.5556
lfingers 7.12502
lthumb 3.70235 51.5032
rfemur 1.22505 -2.59419 15.1557
rtibia 51.1338
rfoot -3.58143 -3.56081
rtoes -13.9146
lfemur 7.78183 -3.52867 -8.53203
ltibia 26.0519
lfoot -3.89019 -9.7864
ltoes -20.7634
2550
root 1.88205 18.0348 -34.476 171.985 17.3779 -173.842
lowerback 4.21012 -0.479865 0.518993
upperback 5.2404 -0.338011 0.869003
thorax 3.03369 -0.034924 0.615394
lowerneck -9.72054 -0.364671 0.496412
upperneck -8.23086 1.29955 12.506
head -1.05037 1.14485 4.05548
rclavicle -4.36829e-014 8.74653e-015
rhumerus -390.515 42.4273 264.59
rradius 68.1715
rwrist -130.452
rhand -10.7165 9.892
rfingers 7.12502
rthumb 15.2935 -379.523
lclavicle -4.36829e-014 8.74653e-015
lhumerus -4.60597 4.71516 60.1783
lradius 87.204
lwrist 230.306
lhand -22.8722 22.0612
lfingers 7.12502
lthumb 3.56652 52.0111
rfemur 0.703372 -1.979 15.1272
rtibia 50.6993
rfoot -3.98933 -3.71339
rtoes -15.0287
lfemur 7.98167 -3.55294 -8.57741
ltibia 25.6877
lfoot -3.82578 -9.25325
ltoes -20.7927
2551
root 1.90309 18.0414 -34.4494 172.058 17.9327 -173.903
lowerback 4.42965 -0.678716 0.627453
upperback 5.28568 -0.592651 1.01417
thorax 2.96024 -0.157452 0.709497
lowerneck -9.62832 -0.123079 0.378831
upperneck -8.37608 1.63391 12.3539
head -1.13666 1.29714 4.03058
rclavicle 8.05078e-015 -3.18055e-015
rhumerus -390.84 41.7675 265.195
rradius 68.4268
rwrist -130.286
rhand -10.6367 10.1138
rfingers 7.12502
rthumb 15.3704 -379.295
lclavicle 8.05078e-015 -3.18055e-015
lhumerus -4.41984 3.95641 61.3582
lradius 86.9993
lwrist 230.455
lhand -22.7688 22.3445
lfingers 7.12502
lthumb 3.66633 52.2927
rfemur 0.205338 -1.33652 15.1039
rtibia 50.2012
rfoot -4.31361 -3.86661
rtoes -16.2712
lfemur 8.1742 -3.67848 -8.66247
ltibia 25.3295
lfoot -3.7825 -8.60714
ltoes -20.8745
2552
root 1.92548 18.0474 -34.421 172.149 18.4654 -173.935
lowerback 4.64151 -0.880628 0.764509
upperback 5.34856 -0.847842 1.14345
thorax 2.90929 -0.278099 0.772645
lowerneck -9.55267 0.11757 0.310313
upperneck -8.54421 1.96997 12.196
head -1.22743 1.45152 3.99375
rclavicle -2.05245e-014 -4.77083e-015
rhumerus -391.169 40.9989 265.764
rradius 68.7171
rwrist -130.064
rhand -10.6112 10.2657
rfingers 7.12502
rthumb 15.395 -379.141
lclavicle -2.05245e-014 -4.77083e-015
lhumerus -4.17592 3.17071 62.4572
lradius 86.6945
lwrist 230.734
lhand -22.7688 22.5352
lfingers 7.12502
lthumb 3.66633 52.4834
rfemur -0.276093 -0.641847 15.1222
rtibia 49.6321
rfoot -4.55535 -4.01701
rtoes -17.1948
lfemur 8.34146 -3.80131 -8.70536
ltibia 24.9667
lfoot -3.70035 -7.97418
ltoes -21.1272
2553
root 1.95037 18.0533 -34.3907 172.233 18.9707 -173.969
lowerback 4.89684 -1.06813 0.913472
upperback 5.38969 -1.08204 1.24458
thorax 2.81062 -0.387894 0.801661
lowerneck -9.46532 0.330617 0.25299
upperneck -8.66957 2.26447 12.0806
head -1.30347 1.58651 3.96852
rclavicle -3.01904e-014 -1.39149e-014
rhumerus -391.539 39.9821 266.274
rradius 68.9179
rwrist -129.795
rhand -10.4906 10.2517
rfingers 7.12502
rthumb 15.5112 -379.146
lclavicle -3.01904e-014 -1.39149e-014
lhumerus -3.98031 2.24804 63.5359
lradius 86.3461
lwrist 231.071
lhand -22.5953 22.5303
lfingers 7.12502
lthumb 3.83389 52.4755
rfemur -0.717282 0.118076 15.1404
rtibia 48.9944
rfoot -4.706 -4.12812
rtoes -17.664
lfemur 8.502 -3.94262 -8.75214
ltibia 24.6006
lfoot -3.59391 -7.33616
ltoes -21.5264
2554
root 1.97816 18.0612 -34.3594 172.32 19.4503 -174.025
lowerback 5.15155 -1.25345 0.988091
upperback 5.43626 -1.31361 1.36898
thorax 2.72024 -0.498891 0.897767
lowerneck -9.41115 0.521821 0.123222
upperneck -8.78999 2.53179 11.9716
head -1.37091 1.71111 3.95903
rclavicle 1.05604e-014 -2.0276e-014
rhumerus -391.845 38.8828 266.839
rradius 68.9752
rwrist -129.665
rhand -10.1973 10.1059
rfingers 7.12502
rthumb 15.7936 -379.27
lclavicle 1.05604e-014 -2.0276e-014
lhumerus -3.86798 1.34296 64.6406
lradius 86.0218
lwrist 231.377
lhand -22.3462 22.3417
lfingers 7.12502
lthumb 4.07451 52.2824
rfemur -1.13993 0.942413 15.1454
rtibia 48.2916
rfoot -4.81359 -4.13069
rtoes -17.8063
lfemur 8.65241 -4.02136 -8.79018
ltibia 24.2175
lfoot -3.4608 -6.75912
ltoes -22.0351
2555
root 2.00856 18.0713 -34.328 172.41 19.8876 -174.059
lowerback 5.41983 -1.45378 1.06491
upperback 5.47542 -1.56364 1.50299
thorax 2.61575 -0.619137 1.00501
lowerneck -9.33 0.714863 -0.0325652
upperneck -8.91404 2.80558 11.8829
head -1.44555 1.8388 3.96131
rclavicle -1.35671e-014 4.96962e-015
rhumerus -392.197 37.6754 267.386
rradius 69.018
rwrist -129.457
rhand -9.88537 9.80258
rfingers 7.12502
rthumb 16.094 -379.549
lclavicle -1.35671e-014 4.96962e-015
lhumerus -3.81648 0.45676 65.7398
lradius 85.6844
lwrist 231.524
lhand -22.1943 22.2274
lfingers 7.12502
lthumb 4.22113 52.1653
rfemur -1.50781 1.8806 15.1984
rtibia 47.5298
rfoot -4.93266 -4.0391
rtoes -17.6746
lfemur 8.80275 -4.12868 -8.80126
ltibia 23.818
lfoot -3.30696 -6.18663
ltoes -22.6141
2556
root 2.04183 18.0821 -34.2951 172.496 20.2296 -174.122
lowerback 5.70097 -1.67002 1.08995
upperback 5.50274 -1.83589 1.62459
thorax 2.49419 -0.752426 1.1314
lowerneck -9.2332 0.906664 -0.194906
upperneck -9.01964 3.07368 11.7935
head -1.51676 1.96345 3.9638
rclavicle -5.2181e-014 1.94809e-014
rhumerus -392.542 36.3284 267.938
rradius 68.99
rwrist -129.277
rhand -9.52311 9.34167
rfingers 7.12502
rthumb 16.4428 -379.981
lclavicle -5.2181e-014 1.94809e-014
lhumerus -3.78045 -0.361356 66.8399
lradius 85.354
lwrist 231.422
lhand -22.259 22.069
lfingers 7.12502
lthumb 4.15864 52.0081
rfemur -1.83188 2.85892 15.2303
rtibia 46.7157
rfoot -5.01089 -3.87668
rtoes -17.4788
lfemur 8.91573 -4.23174 -8.81404
ltibia 23.3978
lfoot -3.08982 -5.70779
ltoes -23.3403
2557
root 2.07775 18.0911 -34.2599 172.559 20.5056 -174.185
lowerback 6.01876 -1.88531 1.10636
upperback 5.53324 -2.10431 1.72634
thorax 2.35637 -0.883255 1.24519
lowerneck -9.09778 1.09461 -0.239861
upperneck -9.16444 3.33233 11.6475
head -1.60428 2.07909 3.92209
rclavicle -5.17586e-014 -8.94531e-015
rhumerus -392.932 34.9178 268.486
rradius 68.9557
rwrist -129.136
rhand -9.0916 8.86673
rfingers 7.12502
rthumb 16.8583 -380.422
lclavicle -5.17586e-014 -8.94531e-015
lhumerus -3.68893 -1.18654 67.8983
lradius 84.9383
lwrist 231.171
lhand -22.3929 21.794
lfingers 7.12502
lthumb 4.02941 51.7357
rfemur -2.09555 3.8297 15.2628
rtibia 45.8567
rfoot -4.97453 -3.66777
rtoes -17.3172
lfemur 9.02775 -4.31702 -8.79499
ltibia 22.9738
lfoot -2.85621 -5.31873
ltoes -24.2231
2558
root 2.115 18.1002 -34.2236 172.614 20.7526 -174.27
lowerback 6.33519 -2.11261 1.10164
upperback 5.57785 -2.38793 1.81545
thorax 2.23584 -1.02155 1.36051
lowerneck -8.98842 1.29366 -0.227622
upperneck -9.2923 3.59524 11.4582
head -1.67965 2.19688 3.85374
rclavicle 5.14169e-014 -5.66536e-015
rhumerus -393.317 33.531 269.032
rradius 68.925
rwrist -128.996
rhand -8.63282 8.44694
rfingers 7.12502
rthumb 17.2999 -380.803
lclavicle 5.14169e-014 -5.66536e-015
lhumerus -3.55499 -1.93017 68.958
lradius 84.4288
lwrist 230.943
lhand -22.9698 21.7328
lfingers 7.12502
lthumb 3.47229 51.6843
rfemur -2.33022 4.80077 15.2532
rtibia 44.963
rfoot -4.83614 -3.3693
rtoes -16.748
lfemur 9.12469 -4.38811 -8.79373
ltibia 22.5591
lfoot -2.59406 -4.95336
ltoes -25.1585
